<?xml version="1.0" standalone="no"?>
<!DOCTYPE svg PUBLIC "-//W3C//DTD SVG 20010904//EN"
 "http://www.w3.org/TR/2001/REC-SVG-20010904/DTD/svg10.dtd">
<svg version="1.0" xmlns="http://www.w3.org/2000/svg"
 width="205.000000pt" height="212.000000pt" viewBox="0 0 205.000000 212.000000"
 preserveAspectRatio="xMidYMid meet">
<metadata>
Created by potrace 1.14, written by Peter Selinger 2001-2017
</metadata>
<g transform="translate(0.000000,212.000000) scale(0.100000,-0.100000)"
fill="#000000" stroke="none">
<path d="M700 2004 c0 -22 7 -63 15 -89 8 -27 13 -51 11 -52 -5 -5 -49 55 -82
112 -38 66 -45 36 -10 -42 l26 -58 -66 70 -66 70 37 -68 c31 -57 34 -67 17
-58 -12 6 -24 15 -27 21 -10 17 -65 52 -65 41 0 -6 17 -28 38 -51 44 -46 36
-51 -27 -15 -52 30 -55 31 -40 4 8 -17 8 -23 -1 -29 -7 -4 -9 -13 -5 -20 4 -7
2 -16 -6 -20 -10 -7 -10 -11 0 -24 11 -12 11 -16 1 -16 -10 0 -9 -4 1 -16 11
-14 10 -18 -10 -33 -21 -16 -22 -20 -10 -42 8 -13 22 -30 32 -37 10 -8 16 -21
13 -29 -13 -33 72 -133 113 -133 10 0 28 -9 41 -20 16 -14 37 -20 68 -20 l45
0 -27 -25 c-24 -23 -31 -24 -69 -15 -23 5 -71 10 -106 10 -54 0 -62 -2 -51
-15 10 -12 7 -15 -17 -21 -45 -11 -50 -18 -18 -25 l30 -6 -42 -17 c-46 -19
-53 -30 -27 -40 15 -6 15 -8 0 -25 -16 -17 -16 -19 0 -25 9 -4 14 -9 11 -12
-8 -8 18 -34 32 -34 6 0 10 -6 8 -12 -1 -9 8 -12 26 -10 18 2 26 -1 22 -7 -6
-10 50 -17 100 -13 11 1 56 3 100 5 44 2 88 7 98 11 13 6 17 4 17 -12 0 -21
19 -72 30 -82 3 -3 16 -21 27 -40 12 -19 38 -51 57 -69 20 -19 36 -44 36 -56
0 -27 18 -45 46 -45 36 0 54 -11 54 -31 0 -10 6 -19 14 -19 8 0 27 -10 43 -23
33 -27 77 -47 102 -47 10 0 23 -11 29 -25 7 -14 20 -25 31 -25 13 0 21 -9 26
-30 9 -39 16 -38 40 7 25 47 37 50 57 16 9 -16 30 -44 47 -63 l31 -35 -15 37
c-24 60 -18 60 41 0 55 -56 55 -56 25 -13 -40 57 -39 73 2 35 53 -50 74 -61
37 -20 -36 40 -28 40 25 0 28 -21 99 -54 114 -54 3 0 -2 7 -13 15 -17 13 -15
14 20 21 l39 7 -67 17 c-37 10 -82 26 -100 37 -51 29 -118 120 -204 276 -44
78 -102 174 -131 214 l-51 72 36 17 c21 10 58 19 85 22 56 5 61 21 16 53 -20
14 -54 24 -99 29 -125 14 -209 81 -312 252 -46 77 -46 87 -2 212 13 38 22 71
20 73 -6 6 -44 -50 -66 -99 l-20 -43 4 60 c3 33 14 87 26 119 11 33 18 61 16
64 -10 9 -56 -77 -70 -132 -9 -32 -18 -61 -20 -63 -5 -5 -26 116 -26 153 0 16
-4 35 -9 43 -13 20 -25 -88 -17 -142 11 -68 -10 -32 -48 83 -31 93 -35 100
-36 64z"/>
<path d="M990 1866 c0 -13 10 -16 53 -16 166 0 366 -101 485 -243 180 -216
210 -495 82 -752 -28 -55 -46 -103 -41 -108 10 -10 38 27 74 98 110 220 99
486 -31 700 -46 76 -161 190 -236 234 -89 53 -209 91 -303 98 -73 5 -83 4 -83
-11z"/>
<path d="M403 1548 c-75 -125 -105 -233 -105 -378 -1 -130 17 -205 78 -329 78
-159 234 -295 403 -351 194 -64 410 -42 585 60 78 46 92 58 79 71 -8 8 -20 4
-45 -15 -45 -34 -169 -90 -238 -107 -32 -8 -102 -13 -165 -13 -90 1 -125 6
-190 27 -407 133 -597 588 -405 967 12 25 30 56 40 70 16 24 17 50 1 50 -4 0
-21 -24 -38 -52z"/>
</g>
</svg>
